<?xml version="1.0" standalone="no"?><!DOCTYPE svg PUBLIC "-//W3C//DTD SVG 1.1//EN" "http://www.w3.org/Graphics/SVG/1.1/DTD/svg11.dtd"><svg t="1694156143891" class="icon" viewBox="0 0 1024 1024" version="1.1" xmlns="http://www.w3.org/2000/svg" p-id="1918" xmlns:xlink="http://www.w3.org/1999/xlink" width="200" height="200"><path d="M480 768a32 32 0 0 0 0 64h64a32 32 0 0 0 0-64h-64z" fill="#e6e6e6" p-id="1919"></path><path d="M256 64a128 128 0 0 0-128 128v640a128 128 0 0 0 128 128h512a128 128 0 0 0 128-128V192a128 128 0 0 0-128-128H256z m512 64a64 64 0 0 1 64 64v448H192V192a64 64 0 0 1 64-64h512zM192 832v-128h640v128a64 64 0 0 1-64 64H256a64 64 0 0 1-64-64z" fill="#e6e6e6" p-id="1920"></path></svg>